HIERARCHY
ROOT Hips
{
  OFFSET 1.44925e-005 102.336 -0.101585
  CHANNELS 6 Xposition Yposition Zposition Zrotation Xrotation Yrotation
  JOINT LeftUpLeg
  {
    OFFSET 8.9458 -8.66707 0.101652
    CHANNELS 3 Zrotation Xrotation Yrotation
    JOINT LeftLeg
    {
      OFFSET 0 -44.4227 1.3727
      CHANNELS 3 Zrotation Xrotation Yrotation
      JOINT LeftFoot
      {
        OFFSET -0.253549 -42.0924 -1.46059
        CHANNELS 3 Zrotation Xrotation Yrotation
        JOINT LeftToes
        {
          OFFSET -0.04 -4.41509 8.4991
          CHANNELS 3 Zrotation Xrotation Yrotation
          End Site
          {
            OFFSET 0.08 -0.047448 9.77979
          }
        }
      }
    }
  }
  JOINT Spine
  {
    OFFSET 0 11.8905 0
    CHANNELS 3 Zrotation Xrotation Yrotation
    JOINT Spine1
    {
      OFFSET 0 25.6574 0.127663
      CHANNELS 3 Zrotation Xrotation Yrotation
      JOINT RightShoulder
      {
        OFFSET -8.99 -0.362252 -0.22
        CHANNELS 3 Zrotation Xrotation Yrotation
        JOINT RightArm
        {
          OFFSET -10.2827 -0.00338 0.322123
          CHANNELS 3 Zrotation Xrotation Yrotation
          JOINT RightForeArm
          {
            OFFSET -26.364 0.099144 -1.42434
            CHANNELS 3 Zrotation Xrotation Yrotation
            JOINT RightHand
            {
              OFFSET -22.0324 0.085362 1.02216
              CHANNELS 3 Zrotation Xrotation Yrotation
              End Site
              {
                OFFSET -13.3284 -0.6 1.50291
              }
            }
          }
        }
      }
      JOINT LeftShoulder1
      {
        OFFSET 8.99 -0.362252 -0.22
        CHANNELS 3 Zrotation Xrotation Yrotation
        JOINT LeftArm
        {
          OFFSET 10.2827 -0.00337999 0.322123
          CHANNELS 3 Zrotation Xrotation Yrotation
          JOINT LeftForeArm
          {
            OFFSET 26.2597 0.099144 -1.42434
            CHANNELS 3 Zrotation Xrotation Yrotation
            JOINT LeftHand
            {
              OFFSET 22.0902 0.085362 1.02216
              CHANNELS 3 Zrotation Xrotation Yrotation
              End Site
              {
                OFFSET 13.419 -0.6 1.50291
              }
            }
          }
        }
      }
      JOINT Head
      {
        OFFSET 0 8.73416 0.011341
        CHANNELS 3 Zrotation Xrotation Yrotation
        End Site
        {
          OFFSET -0.29 12.7742 2.51395
        }
      }
    }
  }
  JOINT RightUpLeg
  {
    OFFSET -8.9458 -8.66707 0.101652
    CHANNELS 3 Zrotation Xrotation Yrotation
    JOINT RightLeg
    {
      OFFSET 0 -44.4227 1.3727
      CHANNELS 3 Zrotation Xrotation Yrotation
      JOINT RightFoot
      {
        OFFSET 0.253549 -42.0924 -1.46059
        CHANNELS 3 Zrotation Xrotation Yrotation
        JOINT RightToes
        {
          OFFSET 0.04 -4.41509 8.4991
          CHANNELS 3 Zrotation Xrotation Yrotation
          End Site
          {
            OFFSET -0.08 -0.137448 9.77979
          }
        }
      }
    }
  }
}
MOTION
Frames:	19
Frame Time:	0.0333333
32.2357 102.267 5.00673 -0.68311 -1.07276 -90.7156 -0.690135 -2.94501 1.24895 0.381751 10.4971 20.0266 -3.40228 -10.7826 -0.0469584 -1.33188e-009 8.75229e-006 -1.47566e-008 0.886902 7.91095 -0.619756 -1.2657 -6.92571 -0.400371 36.2238 1.7998 0.238234 44.8686 -23.4304 9.59269 10.4336 41.4431 2.94748 -6.31489 9.73166 -2.01839 -44.1586 3.59042 -3.55958 -27.0486 -8.84544 4.70347 -1.43814 32.3853 -18.9146 5.82328 9.61819 -0.917488 1.36536 0.930558 -6.98186 -1.11403 -2.96507 -2.78619 -1.11024 11.6435 -7.74312 4.58952 -12.846 0.00978182 0.0462048 0.000530889 0.662642 
32.2129 102.275 5.00147 -0.790101 -1.01018 -90.6181 -0.629783 -2.82441 1.29823 0.415295 10.5066 19.8805 -3.41915 -10.7936 -0.0469601 -1.33188e-009 8.75229e-006 -1.47566e-008 0.905328 7.96971 -0.660315 -1.20041 -6.86763 -0.448731 36.2095 1.7998 0.239229 44.8885 -23.5104 9.6064 10.4556 41.4629 2.87616 -6.32079 9.73186 -1.98345 -44.192 3.59042 -3.55958 -27.0386 -8.76241 4.70213 -1.31732 32.4327 -19.0371 5.82328 9.61819 -0.917488 1.36213 0.890855 -6.91804 -1.04201 -2.74237 -2.7701 -1.09013 11.4846 -7.88637 4.62789 -12.7956 0.00977987 0.0462048 0.000530889 0.662642 
32.1797 102.285 4.99318 -0.936747 -0.925638 -90.4711 -0.538006 -2.66125 1.37701 0.44272 10.5199 19.6513 -3.4177 -10.8168 -0.0469638 -1.33188e-009 8.75229e-006 -1.47566e-008 0.907478 8.02793 -0.724426 -1.09533 -6.74522 -0.526805 36.1875 1.7998 0.243562 44.9286 -23.5942 9.63485 10.4691 41.5454 2.806 -6.33715 9.73231 -1.90458 -44.2081 3.59042 -3.55958 -27.0531 -8.64354 4.69775 -1.13341 32.4815 -19.229 5.82328 9.61819 -0.917488 1.36485 0.825241 -6.79146 -0.948981 -2.42197 -2.74842 -1.06291 11.2448 -8.07392 4.71532 -12.7352 0.00977753 0.0462048 0.000530889 0.662642 
32.1631 102.289 4.98803 -0.995851 -0.890642 -90.3928 -0.494419 -2.58922 1.41412 0.445412 10.5155 19.5312 -3.39458 -10.8276 -0.0469655 -1.33188e-009 8.75229e-006 -1.47566e-008 0.862528 8.01222 -0.758725 -1.00016 -6.61994 -0.575307 36.1587 1.7998 0.248782 44.9772 -23.6018 9.65944 10.4511 41.6395 2.81274 -6.36628 9.73256 -1.85883 -44.2039 3.59042 -3.55958 -27.0637 -8.62965 4.68706 -1.0156 32.5556 -19.3377 5.82328 9.61819 -0.917488 1.37391 0.75495 -6.63372 -0.911659 -2.27228 -2.73964 -1.04951 11.1175 -8.15794 4.77195 -12.7091 0.00977652 0.0462048 0.000530889 0.662642 
32.1725 102.288 4.99023 -0.972556 -0.90466 -90.4241 -0.514813 -2.60223 1.39594 0.447748 10.4859 19.5805 -3.37429 -10.8225 -0.0469647 -1.33188e-009 8.75229e-006 -1.47566e-008 0.824358 7.98779 -0.748759 -0.970653 -6.57441 -0.570009 36.1314 1.7998 0.252098 45.0218 -23.5593 9.6751 10.4281 41.673 2.85167 -6.39582 9.73235 -1.89774 -44.1975 3.59042 -3.55958 -27.0405 -8.74971 4.67302 -0.990498 32.6952 -19.3228 5.82328 9.61819 -0.917488 1.38824 0.700369 -6.48701 -0.925304 -2.32215 -2.73979 -1.05535 11.1463 -8.12723 4.73159 -12.709 0.00977652 0.0462048 0.000530889 0.662642 
32.1977 102.285 5.00054 -0.94557 -0.926206 -90.5231 -0.554594 -2.63134 1.36557 0.453645 10.4714 19.7159 -3.3619 -10.8207 -0.0469644 -1.33188e-009 8.75229e-006 -1.47566e-008 0.853208 8.04246 -0.718925 -1.02642 -6.62845 -0.53111 36.1186 1.7998 0.252 45.0581 -23.5252 9.70073 10.4315 41.6566 2.84539 -6.36067 9.73183 -1.9898 -44.1838 3.59042 -3.55958 -27.0103 -8.83316 4.67058 -1.00711 32.7774 -19.2796 5.82328 9.61819 -0.917488 1.39803 0.693004 -6.40508 -0.947251 -2.43006 -2.73415 -1.0745 11.2429 -8.04282 4.6425 -12.7131 0.00977668 0.0462048 0.000530889 0.662642 
32.219 102.282 5.01505 -0.949217 -0.937176 -90.6229 -0.577226 -2.64336 1.35458 0.445906 10.4927 19.8367 -3.34767 -10.8197 -0.0469642 -1.33188e-009 8.75229e-006 -1.47566e-008 0.924207 8.132 -0.695381 -1.11246 -6.69822 -0.49306 36.1236 1.7998 0.250447 45.0857 -23.5179 9.74332 10.4612 41.6537 2.79805 -6.30463 9.73125 -2.04607 -44.1586 3.59042 -3.55958 -27.0064 -8.74378 4.69132 -1.03172 32.6745 -19.2841 5.82328 9.61819 -0.917488 1.3729 0.747876 -6.4118 -0.961311 -2.49486 -2.73184 -1.09529 11.3263 -7.95357 4.61243 -12.7204 0.00977696 0.0462048 0.000530889 0.662642 
32.2187 102.28 5.02439 -0.967914 -0.945385 -90.6898 -0.586835 -2.62669 1.35531 0.429196 10.5087 19.9073 -3.33686 -10.8194 -0.0469642 -1.33188e-009 8.75229e-006 -1.47566e-008 0.968673 8.14237 -0.685475 -1.16254 -6.6866 -0.473689 36.1393 1.7998 0.248277 45.0986 -23.521 9.76948 10.4739 41.6732 2.77964 -6.37338 9.72763 -1.99935 -44.1362 3.59042 -3.55958 -27.009 -8.62419 4.72914 -1.07292 32.5317 -19.2828 5.82328 9.61819 -0.917488 1.32085 0.845752 -6.47626 -0.973446 -2.50739 -2.73943 -1.10826 11.378 -7.88132 4.65262 -12.7369 0.00977759 0.0462048 0.000530889 0.662642 
32.1937 102.278 5.0219 -0.999275 -0.954145 -90.7266 -0.598893 -2.56006 1.35486 0.431684 10.4805 19.937 -3.34177 -10.8192 -0.0469641 -1.33188e-009 8.75229e-006 -1.47566e-008 0.967303 8.06456 -0.687622 -1.17613 -6.59862 -0.472477 36.16 1.7998 0.246333 45.0877 -23.5147 9.74216 10.454 41.6612 2.82476 -6.57996 9.71565 -1.87569 -44.118 3.59042 -3.55958 -26.9932 -8.69931 4.77545 -1.11907 32.5986 -19.2122 5.82328 9.61819 -0.917488 1.29469 0.963871 -6.54087 -0.980016 -2.47067 -2.75638 -1.11658 11.4002 -7.83073 4.66584 -12.7565 0.00977835 0.0462048 0.000530889 0.662642 
32.1585 102.277 5.01618 -1.04961 -0.961847 -90.7515 -0.61839 -2.45829 1.35132 0.459414 10.4393 19.9521 -3.35832 -10.8239 -0.0469649 -1.33188e-009 8.75229e-006 -1.47566e-008 0.943229 7.9878 -0.69953 -1.18234 -6.51835 -0.483837 36.1786 1.7998 0.24541 45.0552 -23.4848 9.67211 10.4279 41.5862 2.90403 -6.7286 9.70615 -1.77411 -44.0899 3.59042 -3.55958 -26.9895 -8.93428 4.83708 -1.12633 32.8385 -19.1308 5.82328 9.61819 -0.917488 1.30528 1.10224 -6.56688 -0.979814 -2.39747 -2.76706 -1.12437 11.4063 -7.78368 4.60486 -12.7764 0.00977912 0.0462048 0.000530889 0.662642 
32.1267 102.275 5.0146 -1.10246 -0.973653 -90.774 -0.64459 -2.37786 1.342 0.485606 10.441 19.9782 -3.37853 -10.8463 -0.0469684 -1.33188e-009 8.75229e-006 -1.47566e-008 0.903482 7.95102 -0.716163 -1.1677 -6.48712 -0.504545 36.1754 1.7998 0.245201 45.0228 -23.4413 9.60256 10.4097 41.4913 2.97438 -6.66788 9.70658 -1.74438 -44.0664 3.59042 -3.55958 -27.0327 -9.10241 4.91668 -1.08567 32.9841 -19.1283 5.82328 9.61819 -0.917488 1.30535 1.25263 -6.55188 -0.990526 -2.33051 -2.77493 -1.1313 11.4238 -7.72695 4.54433 -12.8074 0.00978032 0.0462048 0.000530889 0.662642 
32.0978 102.274 5.01976 -1.1382 -0.989801 -90.7901 -0.669697 -2.3408 1.32923 0.49014 10.4825 20.0124 -3.40698 -10.8762 -0.0469731 -1.33188e-009 8.75229e-006 -1.47566e-008 0.85376 7.91896 -0.730827 -1.11489 -6.48019 -0.528647 36.1311 1.7998 0.245521 45.0167 -23.428 9.55059 10.3938 41.4602 3.01156 -6.46461 9.712 -1.72415 -44.0837 3.59041 -3.56074 -27.0944 -9.10625 4.99159 -1.05046 32.9298 -19.1792 5.82328 9.61819 -0.917488 1.28597 1.37381 -6.5215 -1.01824 -2.2906 -2.79469 -1.13318 11.4542 -7.68416 4.55588 -12.8478 0.00978189 0.0462048 0.000530889 0.662642 
32.0681 102.274 5.02644 -1.15744 -0.996242 -90.8018 -0.676954 -2.31718 1.32931 0.481448 10.5153 20.0301 -3.44086 -10.9022 -0.0469772 -1.33188e-009 8.75229e-006 -1.47566e-008 0.836734 7.89184 -0.739096 -1.07557 -6.50248 -0.542894 36.0684 1.7998 0.246601 45.0317 -23.4657 9.4946 10.3788 41.5322 3.00873 -6.24159 9.71618 -1.65125 -44.1306 3.5904 -3.56462 -27.13 -9.0092 5.04271 -1.06182 32.7883 -19.208 5.82328 9.61819 -0.917488 1.29513 1.43844 -6.50822 -1.03618 -2.25605 -2.816 -1.13093 11.4621 -7.67759 4.60299 -12.8733 0.00978289 0.0462048 0.000530889 0.662642 
32.0437 102.273 5.02609 -1.1655 -0.98547 -90.8235 -0.660028 -2.28957 1.35109 0.473927 10.517 20.0275 -3.45854 -10.9212 -0.0469802 -1.33188e-009 8.75229e-006 -1.47566e-008 0.88178 7.9166 -0.740482 -1.10801 -6.59606 -0.539182 36.0496 1.7998 0.248841 45.0205 -23.5055 9.42125 10.3745 41.6408 2.98506 -6.02989 9.72151 -1.58054 -44.1512 3.59018 -3.56721 -27.1532 -8.85309 5.08156 -1.08459 32.6385 -19.2297 5.82328 9.61819 -0.917488 1.33031 1.46944 -6.52193 -1.02324 -2.22037 -2.81307 -1.13221 11.4356 -7.68048 4.62038 -12.8726 0.00978286 0.0462048 0.000530889 0.662642 
32.0267 102.272 5.01796 -1.1693 -0.970973 -90.8514 -0.634691 -2.261 1.38064 0.467773 10.5015 20.0187 -3.44951 -10.9338 -0.0469822 -1.33188e-009 8.75229e-006 -1.47566e-008 0.938349 7.97852 -0.739902 -1.16458 -6.71608 -0.530428 36.1028 1.7998 0.250955 44.9531 -23.4934 9.35809 10.3766 41.677 2.98365 -5.88509 9.72405 -1.60042 -44.1377 3.58921 -3.56955 -27.1946 -8.66078 5.11213 -1.06171 32.481 -19.3046 5.82328 9.61819 -0.917488 1.32164 1.48347 -6.53945 -0.997617 -2.1942 -2.79214 -1.13931 11.4072 -7.66015 4.62017 -12.8701 0.00978276 0.0462048 0.000530889 0.662642 
32.0048 102.272 5.00509 -1.19061 -0.967426 -90.8528 -0.617085 -2.21125 1.40401 0.458776 10.4781 19.993 -3.43031 -10.943 -0.0469837 -1.33188e-009 8.75229e-006 -1.47566e-008 0.933049 7.98658 -0.745115 -1.15101 -6.7166 -0.537327 36.1784 1.7998 0.25313 44.8776 -23.459 9.34871 10.364 41.635 3.02289 -5.94016 9.72191 -1.68772 -44.1416 3.58816 -3.57158 -27.2339 -8.51436 5.09061 -1.00098 32.3583 -19.4097 5.82328 9.61819 -0.917488 1.25901 1.43348 -6.53539 -0.985749 -2.14923 -2.78834 -1.14269 11.3912 -7.63999 4.64544 -12.8889 0.00978349 0.0462048 0.000530889 0.662642 
31.9701 102.272 4.98873 -1.23868 -0.969744 -90.8117 -0.604609 -2.12532 1.42379 0.452434 10.4461 19.933 -3.41717 -10.9501 -0.0469848 -1.33188e-009 8.75229e-006 -1.47566e-008 0.878947 7.89601 -0.757901 -1.08334 -6.53688 -0.55853 36.2179 1.7998 0.255277 44.8696 -23.4735 9.40598 10.3338 41.6244 3.06239 -6.17704 9.71908 -1.7532 -44.1706 3.58722 -3.57324 -27.2432 -8.46 4.9783 -0.961301 32.3037 -19.47 5.82328 9.61819 -0.917488 1.22942 1.27557 -6.51398 -0.982493 -2.05091 -2.80922 -1.13569 11.3567 -7.66088 4.67458 -12.9116 0.00978438 0.0462048 0.000530889 0.662642 
31.9342 102.271 4.97101 -1.28056 -0.966967 -90.7619 -0.59133 -2.04403 1.44078 0.45715 10.4121 19.8691 -3.41183 -10.9502 -0.0469848 -1.33188e-009 8.75229e-006 -1.47566e-008 0.852415 7.76715 -0.771455 -1.06505 -6.3064 -0.573297 36.2222 1.7998 0.257305 44.9362 -23.537 9.49979 10.3159 41.6957 3.0495 -6.31722 9.71994 -1.7905 -44.169 3.58655 -3.57446 -27.2433 -8.43947 4.82177 -0.968795 32.2596 -19.4748 5.82328 9.61819 -0.917488 1.28153 1.07268 -6.49786 -0.970483 -1.9377 -2.82427 -1.12473 11.2858 -7.70507 4.65461 -12.9063 0.00978418 0.0462048 0.000530889 0.662642 
31.9113 102.271 4.95717 -1.28212 -0.961745 -90.746 -0.581842 -2.01511 1.4477 0.46831 10.3864 19.8507 -3.42058 -10.9477 -0.0469844 -1.33188e-009 8.75229e-006 -1.47566e-008 0.874076 7.6766 -0.779678 -1.11284 -6.18424 -0.574403 36.2087 1.7998 0.259125 45.0247 -23.582 9.58997 10.3365 41.7511 2.98483 -6.15619 9.72801 -1.86515 -44.1381 3.58616 -3.57518 -27.2434 -8.41008 4.72229 -0.994873 32.1767 -19.4704 5.82328 9.61819 -0.917488 1.34541 0.957184 -6.49912 -0.954844 -1.88082 -2.81629 -1.12122 11.2103 -7.71883 4.60243 -12.8796 0.00978313 0.0462048 0.000530889 0.662642 
